<svg width="24" height="24" viewBox="0 0 24 24" fill="none" xmlns="http://www.w3.org/2000/svg">
<path d="M9.33801 5.59C8.38559 5.85248 7.43965 6.1379 6.50101 6.446C6.41529 6.47376 6.3391 6.52504 6.28111 6.59399C6.22312 6.66295 6.18567 6.7468 6.17301 6.836C5.61901 10.993 6.89901 14.026 8.42601 16.024C9.07252 16.8784 9.84341 17.6311 10.713 18.257C11.059 18.501 11.365 18.677 11.606 18.79C11.726 18.847 11.824 18.885 11.899 18.908C11.9318 18.9195 11.9656 18.9279 12 18.933C12.034 18.9275 12.0674 18.9191 12.1 18.908C12.176 18.885 12.274 18.847 12.394 18.79C12.634 18.677 12.941 18.5 13.287 18.257C14.1566 17.6311 14.9275 16.8784 15.574 16.024C17.101 14.027 18.381 10.993 17.827 6.836C17.8145 6.74676 17.777 6.66285 17.719 6.59388C17.661 6.52491 17.5848 6.47366 17.499 6.446C16.848 6.233 15.749 5.886 14.662 5.591C13.552 5.29 12.531 5.067 12 5.067C11.47 5.067 10.448 5.289 9.33801 5.59ZM9.07201 4.56C10.157 4.265 11.31 4 12 4C12.69 4 13.843 4.265 14.928 4.56C16.038 4.86 17.157 5.215 17.815 5.43C18.0901 5.52085 18.334 5.68747 18.5187 5.9107C18.7034 6.13394 18.8213 6.40474 18.859 6.692C19.455 11.169 18.072 14.487 16.394 16.682C15.6824 17.621 14.834 18.4479 13.877 19.135C13.5461 19.3728 13.1955 19.5819 12.829 19.76C12.549 19.892 12.248 20 12 20C11.752 20 11.452 19.892 11.171 19.76C10.8045 19.5819 10.4539 19.3728 10.123 19.135C9.16603 18.4478 8.31759 17.621 7.60601 16.682C5.92801 14.487 4.54501 11.169 5.14101 6.692C5.17869 6.40474 5.29665 6.13394 5.48132 5.9107C5.666 5.68747 5.9099 5.52085 6.18501 5.43C7.1402 5.11681 8.10281 4.82672 9.07201 4.56Z" fill="#3C3C3B"/>
<path d="M14.8541 9.14592C14.9007 9.19236 14.9376 9.24754 14.9629 9.30828C14.9881 9.36903 15.001 9.43415 15.001 9.49992C15.001 9.56568 14.9881 9.63081 14.9629 9.69155C14.9376 9.7523 14.9007 9.80747 14.8541 9.85392L11.8541 12.8539C11.8077 12.9005 11.7525 12.9374 11.6918 12.9626C11.631 12.9878 11.5659 13.0008 11.5001 13.0008C11.4344 13.0008 11.3693 12.9878 11.3085 12.9626C11.2478 12.9374 11.1926 12.9005 11.1461 12.8539L9.64614 11.3539C9.59966 11.3074 9.56278 11.2522 9.53762 11.1915C9.51246 11.1308 9.49951 11.0657 9.49951 10.9999C9.49951 10.9342 9.51246 10.8691 9.53762 10.8083C9.56278 10.7476 9.59966 10.6924 9.64614 10.6459C9.69263 10.5994 9.74782 10.5626 9.80856 10.5374C9.8693 10.5122 9.9344 10.4993 10.0001 10.4993C10.0659 10.4993 10.131 10.5122 10.1917 10.5374C10.2525 10.5626 10.3077 10.5994 10.3541 10.6459L11.5001 11.7929L14.1461 9.14592C14.1926 9.09935 14.2478 9.06241 14.3085 9.0372C14.3693 9.012 14.4344 8.99902 14.5001 8.99902C14.5659 8.99902 14.631 9.012 14.6918 9.0372C14.7525 9.06241 14.8077 9.09935 14.8541 9.14592Z" fill="#3C3C3B"/>
</svg>
