<svg width="24" height="24" viewBox="0 0 24 24" fill="none" xmlns="http://www.w3.org/2000/svg">
<path d="M4 12C4 9.87827 4.84285 7.84344 6.34315 6.34315C7.84344 4.84285 9.87827 4 12 4C14.1217 4 16.1566 4.84285 17.6569 6.34315C19.1571 7.84344 20 9.87827 20 12C20 14.1217 19.1571 16.1566 17.6569 17.6569C16.1566 19.1571 14.1217 20 12 20C9.87827 20 7.84344 19.1571 6.34315 17.6569C4.84285 16.1566 4 14.1217 4 12V12ZM11.5 5.077C10.83 5.281 10.165 5.897 9.613 6.932C9.47 7.2 9.337 7.492 9.218 7.804C9.923 7.961 10.69 8.061 11.5 8.091V5.077ZM8.249 7.539C8.391 7.155 8.553 6.795 8.73 6.461C8.90291 6.13406 9.10259 5.82199 9.327 5.528C8.47567 5.8808 7.70225 6.398 7.051 7.05C7.413 7.234 7.814 7.399 8.249 7.54V7.539ZM7.509 11.5C7.545 10.43 7.697 9.413 7.945 8.492C7.4037 8.31889 6.87976 8.09559 6.38 7.825C5.58354 8.89435 5.11082 10.1699 5.018 11.5H7.508H7.509ZM8.909 8.759C8.67325 9.65477 8.53907 10.5742 8.509 11.5H11.5V9.091C10.59 9.061 9.717 8.946 8.909 8.759ZM12.5 9.09V11.5H15.49C15.4603 10.5743 15.3264 9.6548 15.091 8.759C14.283 8.946 13.41 9.06 12.5 9.091V9.09ZM8.51 12.5C8.545 13.487 8.686 14.414 8.909 15.241C9.76006 15.0479 10.6277 14.937 11.5 14.91V12.5H8.51ZM12.5 12.5V14.909C13.41 14.939 14.283 15.054 15.091 15.241C15.314 14.414 15.455 13.487 15.491 12.5H12.5ZM9.218 16.196C9.338 16.508 9.47 16.8 9.613 17.068C10.165 18.103 10.831 18.718 11.5 18.923V15.91C10.69 15.94 9.923 16.04 9.218 16.197V16.196ZM9.328 18.472C9.10323 18.1781 8.90321 17.866 8.73 17.539C8.54582 17.1904 8.38513 16.83 8.249 16.46C7.83763 16.5922 7.4371 16.756 7.051 16.95C7.70225 17.602 8.47567 18.1192 9.327 18.472H9.328ZM7.945 15.508C7.68538 14.5252 7.53876 13.516 7.508 12.5H5.018C5.11077 13.8301 5.5835 15.1057 6.38 16.175C6.85 15.917 7.375 15.693 7.945 15.508V15.508ZM14.673 18.472C15.5239 18.1194 16.297 17.6026 16.948 16.951C16.5622 16.7571 16.162 16.5932 15.751 16.461C15.6148 16.8306 15.4541 17.1908 15.27 17.539C15.0971 17.866 14.8975 18.178 14.673 18.472V18.472ZM12.5 15.909V18.923C13.17 18.719 13.835 18.103 14.387 17.068C14.53 16.8 14.663 16.508 14.782 16.196C14.0316 16.0315 13.2678 15.9357 12.5 15.91V15.909ZM16.055 15.508C16.625 15.693 17.15 15.917 17.62 16.175C18.4165 15.1057 18.8892 13.8301 18.982 12.5H16.492C16.4612 13.516 16.3146 14.5252 16.055 15.508V15.508ZM18.982 11.5C18.8892 10.1699 18.4165 8.89433 17.62 7.825C17.15 8.083 16.625 8.307 16.055 8.492C16.303 9.412 16.455 10.43 16.492 11.5H18.982ZM15.27 6.461C15.447 6.795 15.609 7.155 15.752 7.539C16.1627 7.40675 16.5626 7.24292 16.948 7.049C16.2969 6.39782 15.5238 5.88132 14.673 5.529C14.891 5.812 15.091 6.126 15.27 6.461V6.461ZM14.782 7.804C14.6684 7.50549 14.5365 7.21427 14.387 6.932C13.835 5.897 13.17 5.282 12.5 5.077V8.09C13.31 8.06 14.077 7.96 14.782 7.803V7.804Z" fill="#3C3C3B"/>
</svg>
