<svg width="24" height="24" viewBox="0 0 24 24" fill="none" xmlns="http://www.w3.org/2000/svg">
<path d="M12.47 5.1182C12.3253 5.04116 12.1639 5.00087 12 5.00087C11.8361 5.00087 11.6747 5.04116 11.53 5.1182L5.53 8.3182C5.37002 8.40338 5.2362 8.53045 5.14285 8.6858C5.0495 8.84115 5.00012 9.01896 5 9.2002V10.0172L10.75 13.4672L12 12.7172L13.25 13.4672L19 10.0172V9.2002C18.9999 9.01896 18.9505 8.84115 18.8572 8.6858C18.7638 8.53045 18.63 8.40338 18.47 8.3182L12.47 5.1182V5.1182ZM19 11.1832L14.222 14.0502L19 16.9172V11.1832ZM18.965 18.0632L12 13.8822L5.035 18.0622C5.09252 18.2741 5.21818 18.4612 5.39259 18.5945C5.56699 18.7279 5.78044 18.8002 6 18.8002H18C18.2196 18.8002 18.433 18.7279 18.6074 18.5945C18.7818 18.4612 18.9075 18.2741 18.965 18.0622V18.0632ZM5 16.9162L9.778 14.0492L5 11.1832V16.9172V16.9162ZM11.059 4.2352C11.3486 4.08078 11.6718 4 12 4C12.3282 4 12.6514 4.08078 12.941 4.2352L18.941 7.4352C19.2609 7.60578 19.5285 7.86012 19.715 8.17101C19.9015 8.4819 20 8.83764 20 9.2002V17.8002C20 18.3306 19.7893 18.8393 19.4142 19.2144C19.0391 19.5895 18.5304 19.8002 18 19.8002H6C5.46957 19.8002 4.96086 19.5895 4.58579 19.2144C4.21071 18.8393 4 18.3306 4 17.8002V9.2002C3.99996 8.83764 4.09848 8.4819 4.28501 8.17101C4.47155 7.86012 4.73908 7.60578 5.059 7.4352L11.059 4.2352V4.2352Z" fill="white"/>
</svg>
