<svg width="1030" height="601" viewBox="0 0 1030 601" fill="none" xmlns="http://www.w3.org/2000/svg">
<g clip-path="url(#clip0_1_4481)">
<path d="M445.45 286.85H299.98V143.76H344.38V242.45H445.45V286.85Z" fill="#076955"/>
<path d="M635.31 286.85H489.84V0H534.24V242.45H635.31V286.85Z" fill="#076955"/>
<path d="M724.1 143.76H679.71V44.39H578.63V0H724.1V143.76Z" fill="#076955"/>
<path d="M724.1 242.45H679.71V286.84H724.1V242.45Z" fill="#EC6421"/>
<path d="M262.89 593.19H259.45V565.63H262.89V578.93L278.15 565.63H282.87L268.08 578.4L283.71 593.19H278.94L265.37 580.52L262.88 582.75V593.19H262.89Z" fill="#3C3C3B"/>
<path d="M284.09 579.36C284.09 575.12 285.47 571.66 288.22 568.97C290.97 566.28 294.44 564.94 298.61 564.94C302.78 564.94 306.33 566.3 309.05 569.02C311.77 571.74 313.13 575.19 313.13 579.35C313.13 583.51 311.75 587.04 309 589.71C306.24 592.38 302.78 593.71 298.61 593.71C294.44 593.71 290.89 592.36 288.17 589.66C285.45 586.96 284.09 583.52 284.09 579.35V579.36ZM287.75 579.36C287.75 582.58 288.77 585.23 290.82 587.31C292.87 589.39 295.47 590.44 298.61 590.44C301.75 590.44 304.44 589.4 306.45 587.31C308.46 585.22 309.47 582.58 309.47 579.36C309.47 576.14 308.45 573.49 306.42 571.38C304.39 569.28 301.78 568.23 298.6 568.23C295.42 568.23 292.77 569.29 290.76 571.41C288.75 573.53 287.74 576.18 287.74 579.36H287.75Z" fill="#3C3C3B"/>
<path d="M341.07 593.19H337.63V568.92H323.9V573.85C323.9 575.02 323.86 576.17 323.79 577.32C323.72 578.47 323.6 579.84 323.42 581.43C323.24 583.02 322.94 584.48 322.52 585.8C322.1 587.13 321.57 588.39 320.96 589.59C320.34 590.79 319.53 591.73 318.52 592.4C317.51 593.07 316.35 593.41 315.05 593.41C314.66 593.41 314.36 593.39 314.15 593.36L313.83 589.91C315.91 590.19 317.54 588.99 318.71 586.31C319.88 583.66 320.46 579.47 320.46 573.75V565.64H341.08V593.2L341.07 593.19Z" fill="#3C3C3B"/>
<path d="M371.91 593.19H368.47V568.92H354.74V573.85C354.74 575.02 354.7 576.17 354.63 577.32C354.56 578.47 354.44 579.84 354.26 581.43C354.08 583.02 353.78 584.48 353.36 585.8C352.94 587.13 352.41 588.39 351.8 589.59C351.18 590.79 350.37 591.73 349.36 592.4C348.35 593.07 347.19 593.41 345.89 593.41C345.5 593.41 345.2 593.39 344.99 593.36L344.67 589.91C346.75 590.19 348.38 588.99 349.55 586.31C350.72 583.66 351.3 579.47 351.3 573.75V565.64H371.92V593.2L371.91 593.19Z" fill="#3C3C3B"/>
<path d="M400.43 585.88L402.76 587.95C401.56 589.79 399.99 591.21 398.04 592.22C396.1 593.23 394.01 593.73 391.79 593.73C387.41 593.73 383.87 592.4 381.19 589.75C378.5 587.1 377.16 583.64 377.16 579.36C377.16 575.08 378.43 571.57 380.98 568.92C383.52 566.27 386.9 564.95 391.1 564.95C391.81 564.95 392.78 565.04 394.01 565.21C397.05 565.81 399.43 567.23 401.17 569.48C402.9 571.72 403.77 574.38 403.77 577.46C403.77 578.31 403.7 579.3 403.56 580.43H380.82C380.93 583.58 382.01 586.03 384.08 587.8C386.15 589.57 388.77 590.45 391.95 590.45C393.57 590.45 395.16 590.03 396.72 589.18C398.27 588.33 399.51 587.24 400.43 585.89V585.88ZM390.83 568.18C388.07 568.18 385.78 569.01 383.94 570.67C382.1 572.33 381.04 574.52 380.76 577.24H400.05C399.98 574.38 399.12 572.15 397.48 570.56C395.84 568.97 393.62 568.18 390.83 568.18Z" fill="#3C3C3B"/>
<path d="M412.51 593.19H409.07V565.63H428.73V568.92H412.51V593.19Z" fill="#3C3C3B"/>
<path d="M453.8 570.77L435.62 593.19H432.28V565.63H435.72V588.1L453.9 565.63H457.24V593.19H453.8V570.77Z" fill="#3C3C3B"/>
<path d="M474.78 565.63H485.7V593.19H482.26V582.96H474.57L465.61 593.19H461.26L470.64 582.48C468.48 582.16 466.69 581.25 465.26 579.75C463.83 578.25 463.11 576.44 463.11 574.32C463.11 572.2 463.71 570.41 464.91 569.05C466.11 567.69 467.53 566.78 469.18 566.32C470.82 565.86 472.69 565.63 474.77 565.63H474.78ZM466.78 574.38C466.78 575.12 467.01 575.88 467.47 576.66C467.96 577.69 468.87 578.45 470.2 578.94C471.53 579.44 472.86 579.68 474.2 579.68H482.26V568.92H474.26C472.14 568.92 470.36 569.34 468.93 570.17C467.5 571 466.78 572.41 466.78 574.38Z" fill="#3C3C3B"/>
<path d="M510.19 571.46L508.34 568.81C509.65 567.61 511.28 566.66 513.24 565.97C515.2 565.28 517.12 564.94 518.99 564.94C522.66 564.94 525.47 565.89 527.42 567.78C529.36 569.67 530.34 572.44 530.34 576.07V593.19H526.9V588.63C525.8 590.22 524.31 591.44 522.42 592.29C520.53 593.14 518.56 593.56 516.51 593.56C513.75 593.56 511.4 592.85 509.46 591.44C507.52 590.03 506.54 587.99 506.54 585.35C506.54 579.77 511.01 576.98 519.95 576.98C522.64 576.98 524.95 577.26 526.89 577.83C526.89 574.65 526.26 572.26 525.01 570.65C523.76 569.04 521.61 568.24 518.57 568.24C515.71 568.24 512.92 569.32 510.2 571.47L510.19 571.46ZM512.36 589.09C513.84 589.96 515.54 590.39 517.45 590.39C519.36 590.39 521.22 589.81 523.04 588.64C524.86 587.47 526.14 586.01 526.88 584.24V580.95C525.22 580.39 523.06 580.1 520.41 580.1C513.56 580.1 510.13 581.78 510.13 585.14C510.13 586.91 510.87 588.22 512.36 589.09Z" fill="#3C3C3B"/>
<path d="M536.84 600.08H533.55V589.9H536.52C539.06 586.19 540.34 580.06 540.34 571.51V565.63H560.53V589.9H564.61V600.08H561.32V593.19H536.83V600.08H536.84ZM557.09 568.92H543.68V572.15C543.68 580.1 542.57 586.02 540.34 589.9H557.09V568.91V568.92Z" fill="#3C3C3B"/>
<path d="M580.09 593.19H568.32V565.63H579.61C581.13 565.63 582.43 565.7 583.51 565.84C584.59 565.98 585.73 566.26 586.93 566.69C588.13 567.11 589.05 567.81 589.69 568.78C590.33 569.75 590.64 571 590.64 572.52C590.64 575.31 589.35 577.36 586.77 578.67C590.02 579.55 591.65 581.83 591.65 585.51C591.65 587.03 591.31 588.32 590.62 589.38C589.93 590.44 588.99 591.24 587.78 591.77C586.58 592.3 585.36 592.67 584.12 592.88C582.88 593.09 581.54 593.2 580.09 593.2V593.19ZM579.46 568.87H571.77V577.56H580.94C582.56 577.56 583.98 577.19 585.18 576.45C586.38 575.71 586.98 574.58 586.98 573.06C586.98 572.14 586.74 571.37 586.26 570.75C585.78 570.13 585.11 569.7 584.25 569.45C583.38 569.2 582.61 569.04 581.92 568.97C581.23 568.9 580.41 568.86 579.46 568.86V568.87ZM580.52 580.74H571.77V589.96H579.72C585.23 589.96 587.99 588.39 587.99 585.24C587.99 582.09 585.5 580.74 580.52 580.74Z" fill="#3C3C3B"/>
<path d="M595.41 579.36C595.41 575.12 596.79 571.66 599.54 568.97C602.29 566.28 605.76 564.94 609.93 564.94C614.1 564.94 617.65 566.3 620.37 569.02C623.09 571.74 624.45 575.19 624.45 579.35C624.45 583.51 623.07 587.04 620.32 589.71C617.56 592.38 614.1 593.71 609.93 593.71C605.76 593.71 602.21 592.36 599.49 589.66C596.77 586.96 595.41 583.52 595.41 579.35V579.36ZM599.07 579.36C599.07 582.58 600.09 585.23 602.14 587.31C604.19 589.39 606.79 590.44 609.93 590.44C613.07 590.44 615.76 589.4 617.77 587.31C619.78 585.22 620.79 582.58 620.79 579.36C620.79 576.14 619.77 573.49 617.74 571.38C615.71 569.28 613.1 568.23 609.92 568.23C606.74 568.23 604.09 569.29 602.08 571.41C600.07 573.53 599.06 576.18 599.06 579.36H599.07Z" fill="#3C3C3B"/>
<path d="M633.2 593.19H629.76V565.63H633.2V578.93L648.46 565.63H653.18L638.39 578.4L654.02 593.19H649.25L635.68 580.52L633.19 582.75V593.19H633.2Z" fill="#3C3C3B"/>
<path d="M659.17 571.46L657.32 568.81C658.63 567.61 660.26 566.66 662.22 565.97C664.18 565.28 666.1 564.94 667.97 564.94C671.64 564.94 674.45 565.89 676.4 567.78C678.34 569.67 679.32 572.44 679.32 576.07V593.19H675.88V588.63C674.78 590.22 673.29 591.44 671.4 592.29C669.51 593.14 667.54 593.56 665.49 593.56C662.73 593.56 660.38 592.85 658.44 591.44C656.5 590.03 655.52 587.99 655.52 585.35C655.52 579.77 659.99 576.98 668.93 576.98C671.62 576.98 673.93 577.26 675.87 577.83C675.87 574.65 675.24 572.26 673.99 570.65C672.74 569.04 670.59 568.24 667.55 568.24C664.69 568.24 661.9 569.32 659.18 571.47L659.17 571.46ZM661.34 589.09C662.82 589.96 664.52 590.39 666.43 590.39C668.34 590.39 670.2 589.81 672.02 588.64C673.84 587.47 675.12 586.01 675.86 584.24V580.95C674.2 580.39 672.04 580.1 669.39 580.1C662.54 580.1 659.11 581.78 659.11 585.14C659.11 586.91 659.85 588.22 661.34 589.09Z" fill="#3C3C3B"/>
<path d="M693.25 568.92H682.39V565.63H707.67V568.92H696.7V593.19H693.26V568.92H693.25Z" fill="#3C3C3B"/>
<path d="M708.51 579.36C708.51 575.12 709.89 571.66 712.64 568.97C715.39 566.28 718.86 564.94 723.03 564.94C727.2 564.94 730.75 566.3 733.47 569.02C736.19 571.74 737.55 575.19 737.55 579.35C737.55 583.51 736.17 587.04 733.42 589.71C730.66 592.38 727.2 593.71 723.03 593.71C718.86 593.71 715.31 592.36 712.59 589.66C709.87 586.96 708.51 583.52 708.51 579.35V579.36ZM712.17 579.36C712.17 582.58 713.19 585.23 715.24 587.31C717.29 589.39 719.89 590.44 723.03 590.44C726.17 590.44 728.86 589.4 730.87 587.31C732.88 585.22 733.89 582.58 733.89 579.36C733.89 576.14 732.87 573.49 730.84 571.38C728.81 569.28 726.2 568.23 723.02 568.23C719.84 568.23 717.19 569.29 715.18 571.41C713.17 573.53 712.16 576.18 712.16 579.36H712.17Z" fill="#3C3C3B"/>
<path d="M754.62 593.19H742.85V565.63H754.14C755.66 565.63 756.96 565.7 758.04 565.84C759.12 565.98 760.26 566.26 761.46 566.69C762.66 567.11 763.58 567.81 764.22 568.78C764.86 569.75 765.17 571 765.17 572.52C765.17 575.31 763.88 577.36 761.3 578.67C764.55 579.55 766.18 581.83 766.18 585.51C766.18 587.03 765.84 588.32 765.15 589.38C764.46 590.44 763.52 591.24 762.31 591.77C761.11 592.3 759.89 592.67 758.65 592.88C757.41 593.09 756.07 593.2 754.62 593.2V593.19ZM753.98 568.87H746.29V577.56H755.46C757.08 577.56 758.5 577.19 759.7 576.45C760.9 575.71 761.5 574.58 761.5 573.06C761.5 572.14 761.26 571.37 760.78 570.75C760.3 570.13 759.63 569.7 758.77 569.45C757.9 569.2 757.13 569.04 756.44 568.97C755.75 568.9 754.93 568.86 753.98 568.86V568.87ZM755.04 580.74H746.29V589.96H754.24C759.75 589.96 762.51 588.39 762.51 585.24C762.51 582.09 760.02 580.74 755.04 580.74Z" fill="#3C3C3B"/>
<path d="M57.98 424.81H0V370.91H9.32V416.03H25.57V370.91H34.89V416.03H51.14V370.91H60.46V416.03H67V434.28H57.99V424.81H57.98Z" fill="#3C3C3B"/>
<path d="M113.96 424.81H73.15V370.91H113.19V379.69H82.47V393.24H111.19V401.71H82.47V416.03H113.96V424.81Z" fill="#3C3C3B"/>
<path d="M132.13 406.33V424.81H122.81V370.91H144.6C147.78 370.91 150.66 371.21 153.22 371.8C155.79 372.39 158.14 373.34 160.27 374.65C162.4 375.96 164.06 377.79 165.24 380.15C166.42 382.51 167.01 385.34 167.01 388.62C167.01 391.9 166.38 394.5 165.12 396.86C163.86 399.22 162.14 401.07 159.96 402.4C157.78 403.74 155.4 404.72 152.84 405.36C150.27 406 147.5 406.32 144.52 406.32H132.12L132.13 406.33ZM144.91 379.61H132.13V397.63H144.37C152.99 397.63 157.31 394.6 157.31 388.54C157.31 382.48 153.18 379.61 144.91 379.61Z" fill="#3C3C3B"/>
<path d="M175.02 370.91H214.44V379.69H184.33V391.93H199.19C204.99 391.93 209.62 393.21 213.09 395.78C216.55 398.35 218.29 402.4 218.29 407.95C218.29 419.19 211 424.81 196.42 424.81H175.01V370.91H175.02ZM197.35 400.71H184.34V416.03H196.89C204.74 416.03 208.67 413.36 208.67 408.02C208.67 403.14 204.9 400.71 197.35 400.71Z" fill="#3C3C3B"/>
<path d="M230.15 424.81H220.53L244.17 370.91H251.25L274.89 424.81H265.11L259.87 412.88H235.31L230.15 424.81ZM256.41 404.87L247.56 384.39L238.7 404.87H256.41Z" fill="#3C3C3B"/>
<path d="M289.52 424.81H280.2V370.91H289.52V394.55L313.7 370.91H325.87L301.38 395.09L327.64 424.81H315.24L294.37 401.32L289.52 406.02V424.81Z" fill="#3C3C3B"/>
<path d="M334.33 417.42C329.04 412.08 326.4 405.56 326.4 397.86C326.4 390.16 329.08 383.64 334.45 378.3C339.81 372.96 346.32 370.29 353.97 370.29C361.62 370.29 368.45 372.93 373.68 378.22C378.92 383.51 381.53 390.05 381.53 397.85C381.53 405.65 378.87 412.2 373.56 417.48C368.25 422.77 361.71 425.41 353.96 425.41C346.21 425.41 339.61 422.74 334.32 417.4L334.33 417.42ZM341.15 384.69C337.79 388.34 336.11 392.72 336.11 397.86C336.11 403 337.83 407.38 341.27 411.03C344.71 414.68 348.94 416.5 353.98 416.5C359.27 416.5 363.57 414.72 366.88 411.15C370.19 407.58 371.85 403.16 371.85 397.87C371.85 392.58 370.14 388.28 366.73 384.66C363.31 381.04 359.07 379.23 353.99 379.23C348.91 379.23 344.53 381.05 341.17 384.7L341.15 384.69Z" fill="#3C3C3B"/>
<path d="M411.87 424.81H389.46V370.91H412.33C415 370.91 417.36 371.1 419.41 371.49C421.46 371.87 423.43 372.54 425.3 373.49C427.17 374.44 428.61 375.84 429.61 377.69C430.61 379.54 431.11 381.8 431.11 384.47C431.11 389.81 428.95 393.81 424.64 396.48C430.18 398.28 432.96 402.49 432.96 409.11C432.96 412.09 432.36 414.64 431.15 416.77C429.94 418.9 428.3 420.53 426.22 421.66C424.14 422.79 421.92 423.6 419.56 424.09C417.2 424.58 414.63 424.82 411.86 424.82L411.87 424.81ZM411.1 379.69H398.78V393.09H412.1C414.61 393.09 416.81 392.58 418.68 391.55C420.55 390.52 421.49 388.85 421.49 386.55C421.49 385.06 421.21 383.83 420.64 382.85C420.07 381.88 419.24 381.18 418.14 380.77C417.04 380.36 415.96 380.08 414.91 379.92C413.86 379.77 412.59 379.69 411.1 379.69ZM411.87 401.56H398.78V416.04H411.25C412.89 416.04 414.3 415.96 415.49 415.81C416.67 415.66 417.92 415.35 419.22 414.89C420.53 414.43 421.53 413.67 422.22 412.62C422.91 411.57 423.26 410.22 423.26 408.58C423.26 406.58 422.6 405.03 421.3 403.92C419.99 402.82 418.6 402.15 417.14 401.92C415.68 401.69 413.92 401.57 411.87 401.57V401.56Z" fill="#3C3C3B"/>
<path d="M591.74 409.41L597.21 415.42C594.85 418.71 591.7 421.19 587.78 422.89C583.85 424.58 579.71 425.43 575.34 425.43C566.97 425.43 560.26 422.89 555.21 417.81C550.15 412.73 547.63 406.08 547.63 397.87C547.63 389.66 550.25 383.27 555.48 378.08C560.72 372.9 567.29 370.3 575.19 370.3C579.4 370.3 583.43 371.08 587.28 372.65C591.13 374.22 594.16 376.54 596.37 379.62L590.21 385.47C586.51 381.31 581.66 379.23 575.66 379.23C570.06 379.23 565.61 380.96 562.3 384.43C558.99 387.89 557.33 392.37 557.33 397.87C557.33 403.37 559.06 407.91 562.53 411.35C565.99 414.79 570.5 416.51 576.04 416.51C582.51 416.51 587.74 414.15 591.75 409.43L591.74 409.41Z" fill="#3C3C3B"/>
<path d="M616.53 379.69H598.44V370.91H643.95V379.69H625.86V424.81H616.54V379.69H616.53Z" fill="#3C3C3B"/>
<path d="M690.22 424.81H649.41V370.91H689.45V379.69H658.73V393.24H687.45V401.71H658.73V416.03H690.22V424.81Z" fill="#3C3C3B"/>
<path d="M745.73 424.81H736.41V379.69H708.38V424.81H699.06V370.91H745.72V424.81H745.73Z" fill="#3C3C3B"/>
<path d="M760.67 424.81H751.05L774.69 370.91H781.77L805.41 424.81H795.63L790.39 412.88H765.83L760.67 424.81ZM786.93 404.87L778.08 384.39L769.22 404.87H786.93Z" fill="#3C3C3B"/>
<path d="M857.61 424.81H848.29V401.94H820.03V424.81H810.71V370.91H820.03V393.16H848.29V370.91H857.61V424.81Z" fill="#3C3C3B"/>
<path d="M873.48 417.42C868.19 412.08 865.55 405.56 865.55 397.86C865.55 390.16 868.23 383.64 873.6 378.3C878.96 372.96 885.47 370.29 893.12 370.29C900.77 370.29 907.6 372.93 912.83 378.22C918.07 383.51 920.68 390.05 920.68 397.85C920.68 405.65 918.02 412.2 912.71 417.48C907.4 422.77 900.86 425.41 893.11 425.41C885.36 425.41 878.76 422.74 873.47 417.4L873.48 417.42ZM880.29 384.69C876.93 388.34 875.25 392.72 875.25 397.86C875.25 403 876.97 407.38 880.41 411.03C883.85 414.68 888.08 416.5 893.12 416.5C898.41 416.5 902.71 414.72 906.02 411.15C909.33 407.58 910.99 403.16 910.99 397.87C910.99 392.58 909.28 388.28 905.87 384.66C902.45 381.04 898.21 379.23 893.13 379.23C888.05 379.23 883.67 381.05 880.31 384.7L880.29 384.69Z" fill="#3C3C3B"/>
<path d="M951.01 424.81H928.6V370.91H951.47C954.14 370.91 956.5 371.1 958.55 371.49C960.6 371.87 962.57 372.54 964.44 373.49C966.31 374.44 967.75 375.84 968.75 377.69C969.75 379.54 970.25 381.8 970.25 384.47C970.25 389.81 968.09 393.81 963.78 396.48C969.32 398.28 972.1 402.49 972.1 409.11C972.1 412.09 971.5 414.64 970.29 416.77C969.08 418.9 967.44 420.53 965.36 421.66C963.28 422.79 961.06 423.6 958.7 424.09C956.34 424.58 953.77 424.82 951 424.82L951.01 424.81ZM950.24 379.69H937.92V393.09H951.24C953.75 393.09 955.95 392.58 957.82 391.55C959.69 390.52 960.63 388.85 960.63 386.55C960.63 385.06 960.35 383.83 959.78 382.85C959.21 381.88 958.38 381.18 957.28 380.77C956.18 380.36 955.1 380.08 954.05 379.92C953 379.77 951.73 379.69 950.24 379.69ZM951.01 401.56H937.92V416.04H950.39C952.03 416.04 953.44 415.96 954.63 415.81C955.81 415.66 957.06 415.35 958.36 414.89C959.67 414.43 960.67 413.67 961.36 412.62C962.05 411.57 962.4 410.22 962.4 408.58C962.4 406.58 961.74 405.03 960.44 403.92C959.13 402.82 957.74 402.15 956.28 401.92C954.82 401.69 953.06 401.57 951.01 401.57V401.56Z" fill="#3C3C3B"/>
<path d="M984.74 424.81H975.12L998.76 370.91H1005.84L1029.48 424.81H1019.7L1014.46 412.88H989.9L984.74 424.81ZM1011 404.87L1002.15 384.39L993.29 404.87H1011Z" fill="#3C3C3B"/>
<path d="M299.95 484.78L270.31 522.12H262.53V468.22H271.85V505.57L301.42 468.22H309.27V522.12H299.95V484.78Z" fill="#3C3C3B"/>
<path d="M384.88 522.13H375.56V477.01H347.53V522.13H338.21V468.23H384.87V522.13H384.88Z" fill="#3C3C3B"/>
<path d="M399.82 522.13H390.2L413.84 468.23H420.92L444.56 522.13H434.78L429.54 510.2H404.98L399.82 522.13ZM426.07 502.18L417.22 481.7L408.36 502.18H426.07Z" fill="#3C3C3B"/>
<path d="M459.18 503.65V522.13H449.86V468.23H471.65C474.83 468.23 477.71 468.53 480.27 469.12C482.84 469.71 485.19 470.66 487.32 471.97C489.45 473.28 491.11 475.11 492.29 477.47C493.47 479.83 494.06 482.66 494.06 485.94C494.06 489.22 493.43 491.82 492.17 494.18C490.91 496.54 489.19 498.39 487.01 499.72C484.83 501.06 482.45 502.04 479.89 502.68C477.32 503.32 474.55 503.64 471.57 503.64H459.17L459.18 503.65ZM471.97 476.93H459.19V494.95H471.43C480.05 494.95 484.37 491.92 484.37 485.86C484.37 479.8 480.24 476.93 471.97 476.93Z" fill="#3C3C3B"/>
<path d="M513.24 477.01H495.15V468.23H540.66V477.01H522.57V522.13H513.25V477.01H513.24Z" fill="#3C3C3B"/>
<path d="M593.01 522.13H583.69V499.26H555.43V522.13H546.11V468.23H555.43V490.48H583.69V468.23H593.01V522.13Z" fill="#3C3C3B"/>
<path d="M644.6 522.13H603.79V468.23H643.83V477.01H613.11V490.56H641.83V499.03H613.11V513.35H644.6V522.13ZM608.87 458.37C608.87 456.98 609.41 455.84 610.49 454.94C611.57 454.04 612.82 453.59 614.26 453.59C615.59 453.59 616.77 454.05 617.8 454.98C618.83 455.9 619.34 457.03 619.34 458.37C619.34 459.71 618.83 460.83 617.8 461.76C616.77 462.68 615.59 463.15 614.26 463.15C612.77 463.15 611.5 462.73 610.45 461.88C609.4 461.03 608.87 459.87 608.87 458.38V458.37ZM627.58 458.37C627.58 456.98 628.12 455.84 629.2 454.94C630.28 454.04 631.51 453.59 632.9 453.59C634.29 453.59 635.41 454.05 636.44 454.98C637.47 455.9 637.98 457.03 637.98 458.37C637.98 459.71 637.48 460.83 636.48 461.76C635.48 462.69 634.29 463.15 632.9 463.15C631.51 463.15 630.23 462.69 629.2 461.76C628.12 460.94 627.58 459.81 627.58 458.37Z" fill="#3C3C3B"/>
<path d="M662.77 503.65V522.13H653.45V468.23H675.24C678.42 468.23 681.3 468.53 683.86 469.12C686.43 469.71 688.78 470.66 690.91 471.97C693.04 473.28 694.7 475.11 695.88 477.47C697.06 479.83 697.65 482.66 697.65 485.94C697.65 489.22 697.02 491.82 695.76 494.18C694.5 496.54 692.78 498.39 690.6 499.72C688.42 501.06 686.04 502.04 683.48 502.68C680.91 503.32 678.14 503.64 675.16 503.64H662.76L662.77 503.65ZM675.55 476.93H662.77V494.95H675.01C683.63 494.95 687.95 491.92 687.95 485.86C687.95 479.8 683.82 476.93 675.55 476.93Z" fill="#3C3C3B"/>
<path d="M705.66 468.23H714.98V487.25H724.99C727.97 487.25 730.73 487.55 733.27 488.14C735.81 488.73 738.15 489.65 740.28 490.91C742.41 492.17 744.09 493.94 745.32 496.22C746.55 498.5 747.17 501.21 747.17 504.34C747.17 507.47 746.54 510.38 745.28 512.77C744.02 515.16 742.29 517.01 740.08 518.31C737.87 519.61 735.47 520.58 732.88 521.2C730.29 521.82 727.42 522.12 724.3 522.12H705.67V468.22L705.66 468.23ZM724.75 495.95H714.97V513.35H724.59C726.39 513.35 727.98 513.23 729.36 513C730.75 512.77 732.08 512.36 733.36 511.77C734.64 511.18 735.64 510.26 736.36 509C737.08 507.74 737.44 506.19 737.44 504.34C737.44 498.75 733.2 495.95 724.73 495.95H724.75ZM761.56 522.13H752.24V468.23H761.56V522.13Z" fill="#3C3C3B"/>
<path d="M514.6 375.81H472.94V417.47H514.6V375.81Z" fill="#EC6421"/>
</g>
<defs>
<clipPath id="clip0_1_4481">
<rect width="1029.48" height="600.08" fill="white"/>
</clipPath>
</defs>
</svg>
